<?xml version="1.0" encoding="utf-8"?>
<!-- Generator: Adobe Illustrator 23.0.1, SVG Export Plug-In . SVG Version: 6.00 Build 0)  -->
<svg version="1.1" id="Layer_1" xmlns="http://www.w3.org/2000/svg" xmlns:xlink="http://www.w3.org/1999/xlink" x="0px" y="0px"
	 viewBox="0 0 79.6 78.8" style="enable-background:new 0 0 79.6 78.8;" xml:space="preserve">
<style type="text/css">
	.st0{fill:#024793;}
</style>
<path class="st0" d="M39.8,75.9c-20.1,0-36.5-16.4-36.5-36.5S19.7,2.9,39.8,2.9s36.5,16.4,36.5,36.5S59.9,75.9,39.8,75.9z M39.8,3.9
	C20.2,3.9,4.3,19.8,4.3,39.4s15.9,35.5,35.5,35.5S75.3,59,75.3,39.4S59.4,3.9,39.8,3.9z"/>
<g>
	<path class="st0" d="M49.1,36.2c-0.2,0-0.4-0.2-0.4-0.4v-4.1c0-4-4-8.4-9.3-8.4c-5.3,0-9.3,4.4-9.3,8.4v1.9c0,0.2-0.2,0.4-0.4,0.4
		s-0.4-0.2-0.4-0.4v-1.9c0-4.3,4.3-9.1,10-9.1s10,4.8,10,9.1v4.1C49.5,36.1,49.3,36.2,49.1,36.2z"/>
	<path class="st0" d="M43.4,44c-0.1,0-0.2-0.1-0.3-0.2c-0.1-0.2-0.1-0.4,0.1-0.5c1.7-1.1,2.7-3.1,2.7-5.3v-1.5
		c0-0.2,0.2-0.4,0.4-0.4s0.4,0.2,0.4,0.4V38c0,2.5-1.1,4.7-3,5.9C43.5,44,43.5,44,43.4,44z"/>
	<path class="st0" d="M47.7,36.9c-4.1,0-12.5-5.3-12.5-9.7c0-0.2,0.2-0.4,0.4-0.4s0.4,0.2,0.4,0.4c0,3.6,7.7,8.9,11.8,8.9
		c0.2,0,0.4,0.2,0.4,0.4S47.9,36.9,47.7,36.9z"/>
	<path class="st0" d="M36.7,44.7c-0.1,0-0.1,0-0.2,0c-3-1.3-5-4-5-6.7v-2.1c0-2.6,2-4.6,3.8-5.3c0.2-0.1,0.4,0,0.5,0.2
		c0.1,0.2,0,0.4-0.2,0.5c-1.6,0.7-3.3,2.4-3.3,4.7V38c0,2.4,1.8,4.8,4.6,6c0.2,0.1,0.3,0.3,0.2,0.5C37,44.6,36.9,44.7,36.7,44.7z"/>
	<path class="st0" d="M40.5,48.4h-1.4c-1,0-1.8-0.8-1.8-1.8s0.8-1.8,1.8-1.8h1.4c1,0,1.8,0.8,1.8,1.8S41.5,48.4,40.5,48.4z
		 M39.1,45.5c-0.6,0-1.1,0.5-1.1,1.1s0.5,1.1,1.1,1.1h1.4c0.6,0,1.1-0.5,1.1-1.1s-0.5-1.1-1.1-1.1H39.1z"/>
	<path class="st0" d="M42,46.9h-0.7c-0.2,0-0.4-0.2-0.4-0.4s0.2-0.4,0.4-0.4H42c3.8,0,6.7-2.6,6.7-6.1c0-0.2,0.2-0.4,0.4-0.4
		s0.4,0.2,0.4,0.4C49.5,43.9,46.2,46.9,42,46.9z"/>
	<path class="st0" d="M50.5,40.5h-1.8v-7.2h1.8c1,0,1.8,0.8,1.8,1.8v3.6C52.3,39.7,51.5,40.5,50.5,40.5z M49.5,39.8h1.1
		c0.6,0,1.1-0.5,1.1-1.1v-3.6c0-0.6-0.5-1.1-1.1-1.1h-1.1V39.8z"/>
	<path class="st0" d="M30.2,40.5h-1.8c-1,0-1.8-0.8-1.8-1.8v-3.6c0-1,0.8-1.8,1.8-1.8h1.8V40.5z M28.4,34.1c-0.6,0-1.1,0.5-1.1,1.1
		v3.6c0,0.6,0.5,1.1,1.1,1.1h1.1v-5.7H28.4z"/>
	<path class="st0" d="M24.8,56.2c0,0-0.1,0-0.1,0c-0.2-0.1-0.3-0.3-0.2-0.5l0.7-2c0.5-1.5,1.8-2.7,3.4-3.1c0,0,3.3-0.7,4.1-0.9
		c0.4-0.1,1.9-0.6,1.9-2.5v-4.1c0-0.2,0.2-0.4,0.4-0.4s0.4,0.2,0.4,0.4v4.1c0,2-1.3,2.9-2.4,3.2c-0.8,0.2-4.1,0.9-4.1,0.9
		c-1.3,0.3-2.4,1.3-2.9,2.6l-0.7,2C25.1,56.1,25,56.2,24.8,56.2z"/>
	<path class="st0" d="M54.8,56.2c-0.2,0-0.3-0.1-0.4-0.3l-0.7-2c-0.4-1.3-1.5-2.3-2.9-2.6l0,0c0,0-3.3-0.7-4.1-0.9
		c-1.2-0.3-2.1-1.2-2.4-2.4c0-0.2,0.1-0.4,0.3-0.4c0.2,0,0.4,0.1,0.4,0.3c0.3,1.4,1.3,1.7,1.8,1.8c0.8,0.2,4.1,0.9,4.1,0.9
		c1.6,0.4,2.9,1.5,3.4,3.1l0.7,2c0.1,0.2,0,0.4-0.2,0.5C54.9,56.2,54.9,56.2,54.8,56.2z"/>
</g>
</svg>
