<?xml version="1.0" encoding="utf-8"?>
<!-- Generator: Adobe Illustrator 23.0.1, SVG Export Plug-In . SVG Version: 6.00 Build 0)  -->
<svg version="1.1" id="Layer_1" xmlns="http://www.w3.org/2000/svg" xmlns:xlink="http://www.w3.org/1999/xlink" x="0px" y="0px"
	 viewBox="0 0 79.6 78.8" style="enable-background:new 0 0 79.6 78.8;" xml:space="preserve">
<style type="text/css">
	.st0{fill:#024793;}
</style>
<g>
	<g>
		<g>
			<path class="st0" d="M52.3,42.9c-0.1,0-0.2,0-0.3-0.1L39.8,30.5L27.6,42.7c-0.2,0.2-0.4,0.2-0.6,0l-2.3-2.3
				c-0.1-0.1-0.1-0.2-0.1-0.3s0-0.2,0.1-0.3l12.4-12.4c0,0,0,0,0-0.1l2.3-2.3c0.1-0.1,0.2-0.1,0.3-0.1c0,0,0.1,0,0.1,0
				c0.1,0,0.1,0.1,0.2,0.1l2.3,2.3c0,0,0,0,0,0.1l12.4,12.4c0.2,0.2,0.2,0.4,0,0.6l-2.3,2.3C52.5,42.8,52.4,42.9,52.3,42.9z
				 M25.6,40.2l1.7,1.7l12.2-12.2c0.2-0.2,0.4-0.2,0.6,0l12.2,12.2l1.7-1.7L41.8,28c0,0,0,0,0-0.1l-2-2l-2,2c0,0,0,0,0,0.1
				L25.6,40.2z"/>
			<path class="st0" d="M28.4,53.9c-0.2,0-0.4-0.2-0.4-0.4V41.4c0-0.2,0.2-0.4,0.4-0.4s0.4,0.2,0.4,0.4v12.1
				C28.8,53.7,28.6,53.9,28.4,53.9z"/>
			<path class="st0" d="M51.2,53.9c-0.2,0-0.4-0.2-0.4-0.4V41.4c0-0.2,0.2-0.4,0.4-0.4c0.2,0,0.4,0.2,0.4,0.4v12.1
				C51.6,53.7,51.5,53.9,51.2,53.9z"/>
			<path class="st0" d="M50.7,36.6c-0.2,0-0.4-0.2-0.4-0.4v-9.2h-4.1v4.2c0,0.2-0.2,0.4-0.4,0.4c-0.2,0-0.4-0.2-0.4-0.4v-4.7
				c0-0.2,0.2-0.4,0.4-0.4h4.9c0.2,0,0.4,0.2,0.4,0.4v9.6C51.1,36.5,50.9,36.6,50.7,36.6z"/>
		</g>
		<path class="st0" d="M53.3,53.9h-27c-0.2,0-0.4-0.2-0.4-0.4c0-0.2,0.2-0.4,0.4-0.4h27c0.2,0,0.4,0.2,0.4,0.4
			C53.7,53.7,53.6,53.9,53.3,53.9z"/>
	</g>
	<g>
		<path class="st0" d="M41.5,49h-2.8c-1.3,0-2.3-1.1-2.3-2.3c0-0.2,0.2-0.4,0.4-0.4c0.2,0,0.4,0.2,0.4,0.4c0,0.8,0.7,1.5,1.5,1.5
			h2.8c0.8,0,1.5-0.7,1.5-1.5v-1.1c0-0.8-0.7-1.5-1.5-1.5h-2.8c-1.3,0-2.3-1.1-2.3-2.3v-1.1c0-1.3,1.1-2.3,2.3-2.3h2.8
			c1.3,0,2.3,1.1,2.3,2.3c0,0.2-0.2,0.4-0.4,0.4c-0.2,0-0.4-0.2-0.4-0.4c0-0.8-0.7-1.5-1.5-1.5h-2.8c-0.8,0-1.5,0.7-1.5,1.5v1.1
			c0,0.8,0.7,1.5,1.5,1.5h2.8c1.3,0,2.3,1.1,2.3,2.3v1.1C43.9,48,42.8,49,41.5,49z"/>
		<path class="st0" d="M40.1,39c-0.2,0-0.4-0.2-0.4-0.4v-2c0-0.2,0.2-0.4,0.4-0.4c0.2,0,0.4,0.2,0.4,0.4v2
			C40.5,38.9,40.3,39,40.1,39z"/>
		<path class="st0" d="M40.1,51c-0.2,0-0.4-0.2-0.4-0.4v-2c0-0.2,0.2-0.4,0.4-0.4c0.2,0,0.4,0.2,0.4,0.4v2
			C40.5,50.8,40.3,51,40.1,51z"/>
	</g>
</g>
<path class="st0" d="M39.8,75.9c-20.1,0-36.5-16.4-36.5-36.5S19.7,2.9,39.8,2.9s36.5,16.4,36.5,36.5S59.9,75.9,39.8,75.9z M39.8,3.9
	C20.2,3.9,4.3,19.8,4.3,39.4s15.9,35.5,35.5,35.5S75.3,59,75.3,39.4S59.4,3.9,39.8,3.9z"/>
</svg>
