<?xml version="1.0" encoding="utf-8"?>
<!-- Generator: Adobe Illustrator 23.0.1, SVG Export Plug-In . SVG Version: 6.00 Build 0)  -->
<svg version="1.1" id="Layer_1" xmlns="http://www.w3.org/2000/svg" xmlns:xlink="http://www.w3.org/1999/xlink" x="0px" y="0px"
	 viewBox="0 0 79.6 78.8" style="enable-background:new 0 0 79.6 78.8;" xml:space="preserve">
<style type="text/css">
	.st0{fill:#024793;}
</style>
<path class="st0" d="M39.8,75.9c-20.1,0-36.5-16.4-36.5-36.5S19.7,2.9,39.8,2.9s36.5,16.4,36.5,36.5S59.9,75.9,39.8,75.9z M39.8,3.9
	C20.2,3.9,4.3,19.8,4.3,39.4s15.9,35.5,35.5,35.5S75.3,59,75.3,39.4S59.4,3.9,39.8,3.9z"/>
<g>
	<g>
		<g>
			<path class="st0" d="M52.2,57.4H27c-0.6,0-1.1-0.5-1.1-1.1V31.1c0-0.6,0.5-1.1,1.1-1.1h18c0.3,0,0.5,0.2,0.5,0.5
				s-0.2,0.5-0.5,0.5H27c-0.1,0-0.1,0.1-0.1,0.1v25.2c0,0.1,0.1,0.1,0.1,0.1h25.2c0.1,0,0.1-0.1,0.1-0.1V37.9c0-0.3,0.2-0.5,0.5-0.5
				s0.5,0.2,0.5,0.5v18.4C53.3,56.9,52.8,57.4,52.2,57.4z"/>
		</g>
		<g>
			<g>
				<path class="st0" d="M42.4,41.8c-0.3,0-0.5-0.1-0.7-0.3c-0.2-0.2-0.3-0.5-0.3-0.8l0.5-3.5c0.1-0.5,0.3-1,0.7-1.4l14.1-14.1
					c0.4-0.4,1.2-0.4,1.6,0l3.2,3.2c0.4,0.4,0.4,1.2,0,1.6L47.4,40.6c-0.3,0.3-0.9,0.6-1.4,0.7l-3.5,0.5
					C42.5,41.8,42.4,41.8,42.4,41.8z M57.4,22.4C57.4,22.4,57.4,22.4,57.4,22.4L43.3,36.5c-0.2,0.2-0.4,0.5-0.4,0.8l-0.5,3.5
					l3.5-0.5c0.2,0,0.6-0.2,0.8-0.4l14.1-14.1c0,0,0-0.1,0-0.2L57.4,22.4C57.5,22.4,57.4,22.4,57.4,22.4z"/>
			</g>
			<g>
				<path class="st0" d="M58.1,29.5c-0.3,0-0.6-0.1-0.8-0.3l-3.2-3.2c-0.4-0.4-0.4-1.2,0-1.6l2.5-2.5c0.4-0.4,1.2-0.4,1.6,0l3.2,3.2
					c0.4,0.4,0.4,1.2,0,1.6l-2.5,2.5C58.7,29.3,58.4,29.5,58.1,29.5z M57.4,22.4C57.4,22.4,57.3,22.4,57.4,22.4L54.8,25
					c0,0,0,0.1,0,0.2l3.2,3.2h0.2l2.5-2.5c0,0,0-0.1,0-0.2L57.4,22.4C57.5,22.4,57.4,22.4,57.4,22.4z"/>
			</g>
		</g>
		<g>
			<path class="st0" d="M47.3,46.1H31.9c-0.3,0-0.5-0.2-0.5-0.5s0.2-0.5,0.5-0.5h15.5c0.3,0,0.5,0.2,0.5,0.5S47.6,46.1,47.3,46.1z"
				/>
			<path class="st0" d="M43.8,50.5H31.9c-0.3,0-0.5-0.2-0.5-0.5s0.2-0.5,0.5-0.5h11.9c0.3,0,0.5,0.2,0.5,0.5S44.1,50.5,43.8,50.5z"
				/>
		</g>
	</g>
</g>
</svg>
