<?xml version="1.0" encoding="utf-8"?>
<!-- Generator: Adobe Illustrator 24.0.0, SVG Export Plug-In . SVG Version: 6.00 Build 0)  -->
<svg version="1.1" id="Capa_1" xmlns="http://www.w3.org/2000/svg" xmlns:xlink="http://www.w3.org/1999/xlink" x="0px" y="0px"
	 viewBox="0 0 105.5 76.7" style="enable-background:new 0 0 105.5 76.7;" xml:space="preserve">
<style type="text/css">
	.st0{fill:#015694;}
</style>
<path id="XMLID_426_" class="st0" d="M22.4,68.7c0.4,0.4,0.9,0.6,1.5,0.6c0.5,0,1.1-0.2,1.5-0.6l27.4-27.4l27.4,27.4
	c0.4,0.4,0.9,0.6,1.5,0.6c0.5,0,1.1-0.2,1.5-0.6c0.8-0.8,0.8-2.1,0-3L55.7,38.3L83.1,11c0.8-0.8,0.8-2.1,0-3c-0.8-0.8-2.1-0.8-3,0
	L52.8,35.4L25.4,8c-0.8-0.8-2.1-0.8-3,0c-0.8,0.8-0.8,2.1,0,3l27.4,27.4L22.4,65.7C21.6,66.5,21.6,67.9,22.4,68.7z"/>
</svg>
