<?xml version="1.0" encoding="utf-8"?>
<!-- Generator: Adobe Illustrator 23.0.1, SVG Export Plug-In . SVG Version: 6.00 Build 0)  -->
<svg version="1.1" id="Layer_1" xmlns="http://www.w3.org/2000/svg" xmlns:xlink="http://www.w3.org/1999/xlink" x="0px" y="0px"
	 viewBox="0 0 37.2 37.8" style="enable-background:new 0 0 37.2 37.8;" xml:space="preserve">
<style type="text/css">
	.st0{fill:#4BA84F;}
	.st1{fill:#FFFFFF;}
</style>
<g>
	<path class="st0" d="M36.4,18.9c0,9.8-8,17.8-17.8,17.8h0c-9.8,0-17.8-8-17.8-17.8v0c0-9.8,8-17.8,17.8-17.8h0
		C28.4,1.1,36.4,9.1,36.4,18.9L36.4,18.9z"/>
	<path class="st1" d="M26.4,9.5H10.8c-1.9,0-3.4,1.5-3.4,3.4v12c0,1.9,1.5,3.4,3.4,3.4h15.6c1.9,0,3.4-1.5,3.4-3.4v-12
		C29.8,11,28.3,9.5,26.4,9.5z M10.8,11.5h15.6c0.6,0,1.1,0.4,1.3,0.9l-9.1,5.4l-9.1-5.4C9.7,11.9,10.2,11.5,10.8,11.5z M26.4,26.3
		H10.8c-0.8,0-1.4-0.6-1.4-1.4V14.7l9.2,5.4l9.2-5.4v10.3C27.8,25.7,27.2,26.3,26.4,26.3z"/>
</g>
</svg>
