<?xml version="1.0" encoding="utf-8"?>
<!-- Generator: Adobe Illustrator 23.0.1, SVG Export Plug-In . SVG Version: 6.00 Build 0)  -->
<svg version="1.1" id="Layer_1" xmlns="http://www.w3.org/2000/svg" xmlns:xlink="http://www.w3.org/1999/xlink" x="0px" y="0px"
	 viewBox="0 0 79.6 78.8" style="enable-background:new 0 0 79.6 78.8;" xml:space="preserve">
<style type="text/css">
	.st0{fill:#024793;}
	.st1{fill:#363636;}
</style>
<path class="st0" d="M39.8,75.9c-20.1,0-36.5-16.4-36.5-36.5S19.7,2.9,39.8,2.9s36.5,16.4,36.5,36.5S59.9,75.9,39.8,75.9z M39.8,3.9
	C20.2,3.9,4.3,19.8,4.3,39.4s15.9,35.5,35.5,35.5S75.3,59,75.3,39.4S59.4,3.9,39.8,3.9z"/>
<g>
	<g>
		<g>
			<rect x="103.7" y="42.4" class="st1" width="2.4" height="1"/>
		</g>
	</g>
	<g>
		<g>
			<rect x="103.7" y="45.8" class="st1" width="2.4" height="1"/>
		</g>
	</g>
	<g>
		<g>
			<rect x="103.7" y="49.3" class="st1" width="2.4" height="1"/>
		</g>
	</g>
	<g>
		<g>
			<rect x="110" y="42.4" class="st1" width="2.4" height="1"/>
		</g>
	</g>
	<g>
		<g>
			<rect x="110" y="45.8" class="st1" width="2.4" height="1"/>
		</g>
	</g>
	<g>
		<g>
			<rect x="110" y="49.3" class="st1" width="2.4" height="1"/>
		</g>
	</g>
	<g>
		<g>
			<rect x="103.7" y="52.7" class="st1" width="2.4" height="1"/>
		</g>
	</g>
	<g>
		<g>
			<rect x="94.4" y="48.2" class="st1" width="2.4" height="1"/>
		</g>
	</g>
	<g>
		<g>
			<rect x="94.4" y="51.6" class="st1" width="2.4" height="1"/>
		</g>
	</g>
	<g>
		<g>
			<rect x="94.4" y="55.1" class="st1" width="2.4" height="1"/>
		</g>
	</g>
	<g>
		<g>
			<rect x="110" y="52.7" class="st1" width="2.4" height="1"/>
		</g>
	</g>
	<g>
		<g>
			<path class="st1" d="M114.9,61.6h-13.6c-0.3,0-0.5-0.2-0.5-0.5V38.5c0-0.3,0.2-0.5,0.5-0.5h13.6c0.3,0,0.5,0.2,0.5,0.5v22.5
				C115.4,61.3,115.1,61.6,114.9,61.6z M101.8,60.6h12.5V39h-12.5V60.6z"/>
		</g>
	</g>
	<g>
		<g>
			<path class="st1" d="M99.7,61.6h-8.5c-0.3,0-0.5-0.2-0.5-0.5V45.7c0-0.3,0.2-0.5,0.5-0.5h8.5v1h-8v14.4h8V61.6z"/>
		</g>
	</g>
	<g>
		<g>
			<path class="st1" d="M110,61.6h-3.8c-0.3,0-0.5-0.2-0.5-0.5v-4.8c0-0.3,0.2-0.5,0.5-0.5h3.8c0.3,0,0.5,0.2,0.5,0.5v4.8
				C110.5,61.3,110.3,61.6,110,61.6z M106.7,60.6h2.8v-3.8h-2.8V60.6z"/>
		</g>
	</g>
</g>
<g>
	<path class="st0" d="M48.4,53H31.3c-0.3,0-0.6-0.3-0.6-0.6V26.4c0-0.3,0.3-0.6,0.6-0.6h17.1c0.3,0,0.6,0.3,0.6,0.6v25.9
		C48.9,52.7,48.7,53,48.4,53z M31.8,51.8h16V27h-16V51.8z"/>
	<path class="st0" d="M45.8,31.5h-12c-0.3,0-0.6-0.3-0.6-0.6c0-0.3,0.3-0.6,0.6-0.6h12c0.3,0,0.6,0.3,0.6,0.6
		C46.4,31.2,46.2,31.5,45.8,31.5z"/>
	<path class="st0" d="M45.8,35.8h-12c-0.3,0-0.6-0.3-0.6-0.6c0-0.3,0.3-0.6,0.6-0.6h12c0.3,0,0.6,0.3,0.6,0.6
		C46.4,35.5,46.2,35.8,45.8,35.8z"/>
	<path class="st0" d="M45.8,40h-12c-0.3,0-0.6-0.3-0.6-0.6s0.3-0.6,0.6-0.6h12c0.3,0,0.6,0.3,0.6,0.6S46.2,40,45.8,40z"/>
	<path class="st0" d="M45.8,43.8h-12c-0.3,0-0.6-0.3-0.6-0.6s0.3-0.6,0.6-0.6h12c0.3,0,0.6,0.3,0.6,0.6S46.2,43.8,45.8,43.8z"/>
	<path class="st0" d="M43.4,53h-7.1c-0.3,0-0.6-0.3-0.6-0.6v-6.3c0-0.3,0.3-0.6,0.6-0.6h7.1c0.3,0,0.6,0.3,0.6,0.6v6.3
		C43.9,52.7,43.7,53,43.4,53z M36.8,51.8h6v-5.1h-6V51.8z"/>
</g>
</svg>
