<?xml version="1.0" encoding="utf-8"?>
<!-- Generator: Adobe Illustrator 16.0.0, SVG Export Plug-In . SVG Version: 6.00 Build 0)  -->
<!DOCTYPE svg PUBLIC "-//W3C//DTD SVG 1.1//EN" "http://www.w3.org/Graphics/SVG/1.1/DTD/svg11.dtd">
<svg version="1.1" id="Layer_1" xmlns="http://www.w3.org/2000/svg" xmlns:xlink="http://www.w3.org/1999/xlink" x="0px" y="0px"
	 width="37.167px" height="37.834px" viewBox="0 0 37.167 37.834" enable-background="new 0 0 37.167 37.834" xml:space="preserve">
<g>
	<path fill="#3A5A98" d="M36.355,18.917c0,9.774-7.997,17.773-17.771,17.773l0,0c-9.774,0-17.772-7.999-17.772-17.773l0,0
		c0-9.774,7.998-17.773,17.772-17.773l0,0C28.358,1.144,36.355,9.143,36.355,18.917L36.355,18.917z"/>
	<path fill="#FFFFFF" d="M30.086,21.967l0.608-4.733h-4.684v-3.02c0-1.368,0.383-2.302,2.347-2.302l2.501-0.003V7.677
		c-0.432-0.057-1.917-0.185-3.648-0.185c-3.612,0-6.084,2.205-6.084,6.254v3.487H17.04v4.733h4.086v12.139h4.885V21.967H30.086z"/>
</g>
</svg>
