<?xml version="1.0" encoding="utf-8"?>
<!-- Generator: Adobe Illustrator 24.0.0, SVG Export Plug-In . SVG Version: 6.00 Build 0)  -->
<svg version="1.1" id="Layer_1" xmlns="http://www.w3.org/2000/svg" xmlns:xlink="http://www.w3.org/1999/xlink" x="0px" y="0px"
	 viewBox="0 0 79.6 78.8" style="enable-background:new 0 0 79.6 78.8;" xml:space="preserve">
<style type="text/css">
	.st0{fill:#FFFFFF;}
</style>
<g>
	<path class="st0" d="M39.8,14.9C26.7,14.9,16,25.5,16,38.7c0,3.8,0.9,7.6,2.7,11c0.4,0.7,1.3,1,2,0.6c0.7-0.4,1-1.3,0.6-2
		C19.8,45.3,19,42,19,38.7c0-11.5,9.3-20.8,20.8-20.8s20.8,9.3,20.8,20.8c0,11.5-9.3,20.8-20.8,20.8c-4.6,0-9-1.5-12.7-4.3
		c-0.6-0.5-1.5-0.5-2,0.1l-6.1,6.1c-0.6,0.6-0.6,1.5,0,2.1c0.3,0.3,0.7,0.4,1.1,0.4c0.4,0,0.8-0.1,1.1-0.4l5.2-5.2
		c4,2.8,8.6,4.2,13.5,4.2c13.1,0,23.8-10.7,23.8-23.8S52.9,14.9,39.8,14.9z"/>
	<path class="st0" d="M39.2,44.3c-1.1,0-2,0.8-2,1.9c0,1.1,0.9,1.9,2,1.9c1.1,0,2-0.8,2-1.9C41.2,45.1,40.3,44.3,39.2,44.3z"/>
	<path class="st0" d="M43,37.2c1.4-1.1,2.9-2.3,2.9-4.8c0-3.5-3-5.2-6.2-5.2c-2.8,0-6,1.3-6.3,5c-0.1,0.5,0.3,0.9,0.8,0.9h1.4
		c0.4,0,0.7-0.3,0.8-0.7c0.2-1.5,1.3-2.5,3.1-2.5c1.6,0,3,0.8,3,2.7c0,1.5-0.9,2.1-2.3,3.2c-1.5,1.1-2.8,2.5-2.7,4.6l0,0.3
		c0,0.5,0.4,0.8,0.8,0.8h1.4c0.5,0,0.8-0.4,0.8-0.8C40.6,39,41.3,38.5,43,37.2z"/>
</g>
</svg>
