<?xml version="1.0" encoding="utf-8"?>
<!-- Generator: Adobe Illustrator 24.0.0, SVG Export Plug-In . SVG Version: 6.00 Build 0)  -->
<svg version="1.1" id="Layer_1" xmlns="http://www.w3.org/2000/svg" xmlns:xlink="http://www.w3.org/1999/xlink" x="0px" y="0px"
	 viewBox="0 0 79.6 78.8" style="enable-background:new 0 0 79.6 78.8;" xml:space="preserve">
<style type="text/css">
	.st0{fill:#FFFFFF;}
</style>
<g id="_x36_">
	<g>
		<g>
			<path class="st0" d="M62,57.2H17.6c-2.3,0-4.1-1.9-4.1-4.1V25.7c0-2.3,1.9-4.1,4.1-4.1H62c2.3,0,4.1,1.9,4.1,4.1v27.4
				C66.2,55.4,64.3,57.2,62,57.2z M17.6,23.4c-1.3,0-2.3,1.1-2.3,2.3v27.4c0,1.3,1.1,2.3,2.3,2.3H62c1.3,0,2.3-1.1,2.3-2.3V25.7
				c0-1.3-1.1-2.3-2.3-2.3C62,23.4,17.6,23.4,17.6,23.4z"/>
			<path class="st0" d="M62,57.7H17.6c-2.5,0-4.6-2.1-4.6-4.6V25.7c0-2.5,2.1-4.6,4.6-4.6H62c2.5,0,4.6,2.1,4.6,4.6v27.4
				C66.7,55.6,64.6,57.7,62,57.7z M17.6,22.1c-2,0-3.6,1.7-3.6,3.6v27.4c0,2,1.7,3.6,3.6,3.6H62c2,0,3.6-1.7,3.6-3.6V25.7
				c0-2-1.7-3.6-3.6-3.6H17.6z M62,55.9H17.6c-1.3,0-2.8-1.1-2.8-2.8V25.7c0-1.3,1.1-2.8,2.8-2.8H62c1.3,0,2.8,1.1,2.8,2.8v27.4
				C64.8,54.4,63.7,55.9,62,55.9z M17.6,23.9c-1,0-1.8,0.9-1.8,1.8v27.4c0,1,0.9,1.8,1.8,1.8H62c1,0,1.8-0.9,1.8-1.8V25.7
				c0-1-0.9-1.8-1.8-1.8H17.6z"/>
		</g>
	</g>
	<g>
		<g>
			<path class="st0" d="M39.7,44.5c-0.2,0-0.4,0-0.6-0.2l-25-16.5c-0.4-0.2-0.6-0.8-0.2-1.3c0.2-0.4,0.8-0.6,1.3-0.2l24.4,16.1
				l24.6-16.3c0.4-0.2,0.9-0.2,1.3,0.2c0.2,0.4,0.2,0.9-0.2,1.3L40.3,44.3C40.1,44.3,39.9,44.5,39.7,44.5z"/>
			<path class="st0" d="M39.7,45c-0.2,0-0.6,0-0.9-0.3L13.9,28.2c-0.3-0.1-0.5-0.4-0.6-0.8c-0.1-0.4,0-0.9,0.2-1.3
				c0.1-0.3,0.4-0.5,0.8-0.6c0.4-0.1,0.9,0,1.3,0.2l24.1,16L64,25.7c0.6-0.3,1.4-0.3,1.9,0.3l0.1,0.1c0.3,0.5,0.3,1.3-0.3,1.9
				L40.4,44.8h-0.2c0,0,0,0-0.1,0C40.1,44.9,39.9,45,39.7,45z M39.7,44C39.7,44,39.7,44,39.7,44C39.7,44,39.7,44,39.7,44z
				 M14.7,26.6C14.6,26.6,14.6,26.6,14.7,26.6c-0.2,0-0.2,0.1-0.2,0.1c-0.2,0.3-0.2,0.4-0.1,0.5c0,0.1,0.1,0.1,0.1,0.1l25.1,16.6
				c0,0,0,0,0.2,0c0,0,0.1,0,0.1,0c0.1,0,0.2-0.1,0.3-0.1l25.1-16.6c0.1-0.1,0.1-0.4,0-0.6c-0.2-0.2-0.5-0.1-0.7,0L39.7,43L15,26.7
				C14.9,26.6,14.8,26.6,14.7,26.6z"/>
		</g>
	</g>
</g>
</svg>
