<?xml version="1.0" encoding="utf-8"?>
<!-- Generator: Adobe Illustrator 24.0.0, SVG Export Plug-In . SVG Version: 6.00 Build 0)  -->
<svg version="1.1" id="Layer_1" xmlns="http://www.w3.org/2000/svg" xmlns:xlink="http://www.w3.org/1999/xlink" x="0px" y="0px"
	 viewBox="0 0 79.6 78.8" style="enable-background:new 0 0 79.6 78.8;" xml:space="preserve">
<style type="text/css">
	.st0{fill:#FFFFFF;}
</style>
<g>
	<g>
		<g>
			<g>
				<path class="st0" d="M19.6,61.8c-0.7,0-1.1-0.2-1.5-0.7s-0.7-1.1-0.7-1.8l1.1-7.7c0.2-1.1,0.7-2.2,1.5-3.1l31-31
					c0.9-0.9,2.6-0.9,3.5,0l7,7c0.9,0.9,0.9,2.6,0,3.5l-31,31c-0.7,0.7-2,1.3-3.1,1.5l-7.7,1.1h-0.1V61.8z M52.6,19.2L52.6,19.2
					l-31,31c-0.4,0.4-0.9,1.1-0.9,1.8l-1.1,7.7l7.7-1.1c0.4,0,1.3-0.4,1.8-0.9l31-31c0,0,0-0.2,0-0.4L52.6,19.2
					C52.8,19.2,52.6,19.2,52.6,19.2z"/>
			</g>
			<g>
				<path class="st0" d="M54.1,34.8c-0.7,0-1.3-0.2-1.8-0.7l-7-7c-0.9-0.9-0.9-2.6,0-3.5l5.5-5.5c0.9-0.9,2.6-0.9,3.5,0l7,7
					c0.9,0.9,0.9,2.6,0,3.5l-5.5,5.5C55.4,34.3,54.8,34.8,54.1,34.8z M52.6,19.2C52.6,19.2,52.3,19.2,52.6,19.2l-5.7,5.7
					c0,0,0,0.2,0,0.4l7,7h0.4l5.5-5.5c0,0,0-0.2,0-0.4L52.6,19.2C52.8,19.2,52.6,19.2,52.6,19.2z"/>
			</g>
		</g>
	</g>
</g>
</svg>
