<?xml version="1.0" encoding="utf-8"?>
<!-- Generator: Adobe Illustrator 24.0.0, SVG Export Plug-In . SVG Version: 6.00 Build 0)  -->
<svg version="1.1" id="Layer_1" xmlns="http://www.w3.org/2000/svg" xmlns:xlink="http://www.w3.org/1999/xlink" x="0px" y="0px"
	 viewBox="0 0 79.6 78.8" style="enable-background:new 0 0 79.6 78.8;" xml:space="preserve">
<style type="text/css">
	.st0{fill:#FFFFFF;}
</style>
<g>
	<path class="st0" d="M47,63.1c0.7,0.2,1.4,0.3,2.1,0.3c1.7,0,3.3-0.6,4.5-1.7l2.2-2c0.7-0.6,1.8-2.2,0.7-5c-1.4-3.6-6.4-9-10-9
		c-0.7,0-1.3,0.2-1.9,0.6L43,47.5c-2.5-0.5-5.1-2.6-6.9-5.7c-1.8-3.1-2.4-6.5-1.5-8.9l1.9-0.8c2-0.9,2.6-3.5,1.7-7.4
		c-0.7-3.2-3-9.2-6.8-9.2c-0.4,0-0.7,0.1-1,0.2l-2.9,0.9c-2.3,0.7-4.1,2.7-4.5,5.1C21.5,29,23.4,38,28.2,46.4
		C33.1,54.6,40,60.8,47,63.1z M24.6,21.9c0.4-1.8,1.7-3.3,3.5-3.9l2.9-0.9c0.2-0.1,0.4-0.1,0.5-0.1c3.7,0,7.4,12.1,4.4,13.5
		l-2.4,1.1c-1.5,3.1-0.7,7.4,1.4,10.9c2,3.5,5.3,6.4,8.8,6.6l2.2-1.6c0.3-0.2,0.6-0.3,0.9-0.3c3.5,0,11,8.7,8.3,11.2l-2.2,2
		c-1,0.9-2.2,1.3-3.5,1.3c-0.5,0-1.1-0.1-1.6-0.3c-7.1-2.3-13.5-8.6-17.9-16.1C25.3,37.9,23.1,29.1,24.6,21.9z"/>
	<path class="st0" d="M49.2,63.7c-0.8,0-1.5-0.1-2.2-0.4l0,0c-7.1-2.4-14-8.5-18.9-17c-4.9-8.4-6.8-17.5-5.3-24.9
		c0.5-2.5,2.3-4.5,4.7-5.3l2.9-0.9c0.4-0.1,0.7-0.2,1.1-0.2c3.9,0,6.3,6.2,7,9.4c0.9,4,0.2,6.7-1.9,7.7L34.8,33
		c-0.8,2.3-0.2,5.5,1.5,8.6c1.8,3,4.2,5.1,6.6,5.6l1.6-1.1c0.6-0.4,1.3-0.6,2-0.6c3.7,0,8.8,5.6,10.2,9.2c1.1,3,0,4.6-0.7,5.3
		l-2.2,2C52.6,63,50.9,63.7,49.2,63.7z M31.5,15.6c-0.3,0-0.6,0.1-1,0.2l-2.9,0.9c-2.2,0.7-3.9,2.6-4.4,4.9
		c-1.5,7.2,0.4,16.2,5.2,24.5S40,60.5,47,62.9l0,0c0.7,0.2,1.3,0.3,2,0.3c1.6,0,3.2-0.6,4.4-1.7l2.2-2c0.7-0.6,1.6-2,0.6-4.7
		c-1.3-3.5-6.3-8.9-9.8-8.9c-0.6,0-1.2,0.2-1.7,0.5L43,47.7h-0.1c-2.6-0.5-5.2-2.7-7.1-5.9c-1.9-3.2-2.4-6.6-1.5-9.1v-0.1l1.9-0.9
		c1.8-0.8,2.4-3.4,1.6-7.1C37.3,21.5,35.1,15.6,31.5,15.6z M49.2,62.1c-0.6,0-1.1-0.1-1.7-0.3c-6.8-2.2-13.3-8.2-18-16.3
		S23,28.7,24.4,21.8l0,0c0.4-1.9,1.8-3.5,3.6-4.1l2.9-0.9c0.2-0.1,0.4-0.1,0.6-0.1c2.3,0,4.6,4.1,5.4,8.1c0.7,3.1,0.3,5.3-1,5.9
		l-2.4,1.1c-1.3,2.8-0.8,6.9,1.4,10.6s5.4,6.2,8.5,6.5l2.1-1.5c0.3-0.2,0.7-0.3,1.1-0.3c2.8,0,7.4,4.7,8.7,8.2
		c0.6,1.6,0.5,2.8-0.3,3.5l-2.2,2C51.8,61.6,50.5,62.1,49.2,62.1z M31.5,17.2c-0.2,0-0.3,0-0.5,0.1l-2.9,0.9c-1.7,0.5-2.9,2-3.3,3.7
		l0,0c-1.4,6.9,0.4,15.4,5,23.4s11.1,13.8,17.7,16c1.7,0.5,3.5,0.1,4.8-1l2.2-2c0.8-0.7,0.5-2,0.2-2.9c-1.4-3.5-5.9-7.8-8.3-7.8
		c-0.3,0-0.6,0.1-0.8,0.2l-2.2,1.6h-0.1c-3.3-0.3-6.7-2.8-8.9-6.8c-2.3-3.9-2.8-8.2-1.4-11.1v-0.1l2.5-1.1c1-0.5,1.3-2.5,0.7-5.3
		C35.6,21.2,33.4,17.2,31.5,17.2z"/>
</g>
</svg>
