<?xml version="1.0" encoding="utf-8"?>
<!-- Generator: Adobe Illustrator 16.0.0, SVG Export Plug-In . SVG Version: 6.00 Build 0)  -->
<!DOCTYPE svg PUBLIC "-//W3C//DTD SVG 1.1//EN" "http://www.w3.org/Graphics/SVG/1.1/DTD/svg11.dtd">
<svg version="1.1" id="Layer_1" xmlns="http://www.w3.org/2000/svg" xmlns:xlink="http://www.w3.org/1999/xlink" x="0px" y="0px"
	 width="37.167px" height="37.834px" viewBox="0 0 37.167 37.834" enable-background="new 0 0 37.167 37.834" xml:space="preserve">
<g>
	<path fill="#027BB5" d="M36.4,18.918c0,9.795-8.015,17.809-17.814,17.809h-0.004c-9.798,0-17.814-8.014-17.814-17.809v-0.002
		c0-9.796,8.017-17.809,17.814-17.809h0.004c9.8,0,17.814,8.013,17.814,17.809V18.918z"/>
	<path fill="#FFFFFF" d="M8.392,15.387h4.371v14.041H8.392V15.387z M10.58,8.407c1.398,0,2.531,1.135,2.531,2.53
		c0,1.396-1.133,2.53-2.531,2.53c-1.402,0-2.534-1.134-2.534-2.53C8.045,9.542,9.177,8.407,10.58,8.407"/>
	<path fill="#FFFFFF" d="M15.504,15.387h4.188v1.918h0.059c0.583-1.104,2.009-2.268,4.134-2.268c4.42,0,5.236,2.907,5.236,6.687
		v7.703h-4.364V22.6c0-1.629-0.032-3.724-2.27-3.724c-2.272,0-2.62,1.773-2.62,3.604v6.947h-4.362V15.387z"/>
</g>
</svg>
