<?xml version="1.0" encoding="utf-8"?>
<!-- Generator: Adobe Illustrator 24.0.0, SVG Export Plug-In . SVG Version: 6.00 Build 0)  -->
<svg version="1.1" id="Layer_1" xmlns="http://www.w3.org/2000/svg" xmlns:xlink="http://www.w3.org/1999/xlink" x="0px" y="0px"
	 viewBox="0 0 37.2 37.8" style="enable-background:new 0 0 37.2 37.8;" xml:space="preserve">
<style type="text/css">
	.st0{fill:#FFFFFF;}
</style>
<g>
	<g>
		<g>
			<defs>
				<circle id="SVGID_1_" cx="18.6" cy="18.9" r="17.8"/>
			</defs>
			<linearGradient id="SVGID_2_" gradientUnits="userSpaceOnUse" x1="5.9899" y1="31.5106" x2="31.1771" y2="6.3234">
				<stop  offset="0" style="stop-color:#FFC55C"/>
				<stop  offset="0.2894" style="stop-color:#F9452C"/>
				<stop  offset="0.6099" style="stop-color:#D12288"/>
				<stop  offset="1" style="stop-color:#673AD5"/>
			</linearGradient>
			<use xlink:href="#SVGID_1_"  style="overflow:visible;fill:url(#SVGID_2_);"/>
			<clipPath id="SVGID_3_">
				<use xlink:href="#SVGID_1_"  style="overflow:visible;"/>
			</clipPath>
		</g>
		<g>
			<path class="st0" d="M23.9,29H13.8c-2.8,0-5-2.2-5-5V13.9c0-2.8,2.2-5,5-5h10.1c2.8,0,5,2.2,5,5v10.1C28.9,26.7,26.6,29,23.9,29z
				 M13.8,10.4c-1.9,0-3.5,1.6-3.5,3.5v10.1c0,1.9,1.6,3.5,3.5,3.5h10.1c1.9,0,3.5-1.6,3.5-3.5V13.9c0-1.9-1.6-3.5-3.5-3.5H13.8z"/>
		</g>
		<g>
			<path class="st0" d="M18.9,24.2c-3,0-5.4-2.4-5.4-5.4c0-3,2.4-5.4,5.4-5.4s5.4,2.4,5.4,5.4C24.3,21.7,21.8,24.2,18.9,24.2z
				 M18.9,14.9c-2.1,0-3.9,1.7-3.9,3.9s1.7,3.9,3.9,3.9s3.9-1.7,3.9-3.9S21,14.9,18.9,14.9z"/>
		</g>
	</g>
	<circle class="st0" cx="24.7" cy="13.6" r="0.8"/>
</g>
</svg>
