<?xml version="1.0" encoding="utf-8"?>
<!-- Generator: Adobe Illustrator 24.0.0, SVG Export Plug-In . SVG Version: 6.00 Build 0)  -->
<svg version="1.1" id="Capa_1" xmlns="http://www.w3.org/2000/svg" xmlns:xlink="http://www.w3.org/1999/xlink" x="0px" y="0px"
	 viewBox="0 0 47 47" style="enable-background:new 0 0 47 47;" xml:space="preserve">
<style type="text/css">
	.st0{fill:#40516F;}
</style>
<path class="st0" d="M23.5,45.3c-12,0-21.8-9.8-21.8-21.8S11.5,1.7,23.5,1.7s21.8,9.8,21.8,21.8S35.5,45.3,23.5,45.3z M23.5,3.2
	c-11.2,0-20.3,9.1-20.3,20.3s9.1,20.3,20.3,20.3s20.3-9.1,20.3-20.3S34.7,3.2,23.5,3.2z"/>
<path class="st0" d="M32.3,22.8h-8.1v-8.1c0-0.4-0.3-0.8-0.8-0.8s-0.8,0.3-0.8,0.8v8.1h-8.1c-0.4,0-0.8,0.3-0.8,0.8s0.3,0.8,0.8,0.8
	h8.1v8.1c0,0.4,0.3,0.8,0.8,0.8s0.8-0.3,0.8-0.8v-8.1h8.1c0.4,0,0.8-0.3,0.8-0.8S32.7,22.8,32.3,22.8z"/>
</svg>
