<?xml version="1.0" encoding="utf-8"?>
<!-- Generator: Adobe Illustrator 24.0.0, SVG Export Plug-In . SVG Version: 6.00 Build 0)  -->
<svg version="1.1" id="Capa_1" xmlns="http://www.w3.org/2000/svg" xmlns:xlink="http://www.w3.org/1999/xlink" x="0px" y="0px"
	 viewBox="0 0 105.5 76.7" style="enable-background:new 0 0 105.5 76.7;" xml:space="preserve">
<style type="text/css">
	.st0{fill:#015694;}
</style>
<g>
	<path class="st0" d="M68.8,70.4c-0.3,0-0.6-0.1-0.9-0.3l-32-30.9c-0.2-0.2-0.4-0.6-0.4-0.9c0-0.3,0.1-0.7,0.4-0.9l32-30.8
		c0.5-0.5,1.3-0.5,1.7,0c0.5,0.5,0.5,1.3,0,1.7l-31.2,30l31.2,30c0.5,0.5,0.5,1.3,0,1.7C69.4,70.3,69.1,70.4,68.8,70.4z"/>
	<path class="st0" d="M68.8,71.4c-0.6,0-1.1-0.2-1.5-0.6L35.2,40c-0.4-0.4-0.7-1-0.7-1.6s0.2-1.2,0.7-1.6l32-30.9
		c0.4-0.4,1-0.6,1.6-0.6S70,5.6,70.4,6c0.9,0.9,0.8,2.3-0.1,3.2L39.9,38.3l30.4,29.2c0.9,0.9,0.9,2.3,0.1,3.2
		C70,71.2,69.4,71.4,68.8,71.4z M68.8,7.3c0,0-0.1,0-0.2,0.1L36.5,38.2c0,0-0.1,0.1-0.1,0.2c0,0.1,0,0.1,0.1,0.2l32.1,30.8
		c0.1,0.1,0.2,0.1,0.3,0c0.1-0.1,0.1-0.2,0-0.3l-31.2-30c-0.2-0.2-0.3-0.4-0.3-0.7s0.1-0.5,0.3-0.7L69,7.7c0-0.1,0-0.3,0-0.4
		C68.9,7.3,68.9,7.3,68.8,7.3z"/>
</g>
</svg>
