<?xml version="1.0" encoding="utf-8"?>
<!-- Generator: Adobe Illustrator 24.0.0, SVG Export Plug-In . SVG Version: 6.00 Build 0)  -->
<svg version="1.1" id="Capa_1" xmlns="http://www.w3.org/2000/svg" xmlns:xlink="http://www.w3.org/1999/xlink" x="0px" y="0px"
	 viewBox="0 0 105.5 76.7" style="enable-background:new 0 0 105.5 76.7;" xml:space="preserve">
<style type="text/css">
	.st0{opacity:0.37;}
	.st1{fill:#015694;}
</style>
<g class="st0">
	<path id="XMLID_1_" class="st1" d="M47.7,59.4c6.5,0,12.5-2.4,17.1-6.4l16,16c0.4,0.4,0.9,0.6,1.4,0.6c0.5,0,1-0.2,1.4-0.6
		c0.8-0.8,0.8-2,0-2.7l-16-16c4-4.6,6.4-10.5,6.4-17.1c0-14.4-11.7-26.2-26.2-26.2c-14.4,0-26.2,11.7-26.2,26.2
		C21.5,47.7,33.2,59.4,47.7,59.4z M47.7,11c12.3,0,22.3,10,22.3,22.3c0,12.3-10,22.3-22.3,22.3c-12.3,0-22.3-10-22.3-22.3
		C25.4,21,35.4,11,47.7,11z"/>
</g>
</svg>
