<?xml version="1.0" encoding="utf-8"?>
<!-- Generator: Adobe Illustrator 24.0.0, SVG Export Plug-In . SVG Version: 6.00 Build 0)  -->
<svg version="1.1" id="Capa_1" xmlns="http://www.w3.org/2000/svg" xmlns:xlink="http://www.w3.org/1999/xlink" x="0px" y="0px"
	 viewBox="0 0 105.5 76.7" style="enable-background:new 0 0 105.5 76.7;" xml:space="preserve">
<style type="text/css">
	.st0{fill:#015694;}
</style>
<g>
	<path id="XMLID_1_" class="st0" d="M47.7,59.4c6.5,0,12.5-2.4,17.1-6.4l16,16c0.4,0.4,0.9,0.6,1.4,0.6s1-0.2,1.4-0.6
		c0.8-0.8,0.8-2,0-2.7l-16-16c4-4.6,6.4-10.5,6.4-17.1C74,18.8,62.3,7,47.8,7C33.4,7,21.6,18.7,21.6,33.2
		C21.5,47.7,33.2,59.4,47.7,59.4z M47.7,11C60,11,70,21,70,33.3S60,55.6,47.7,55.6s-22.3-10-22.3-22.3C25.4,21,35.4,11,47.7,11z"/>
</g>
</svg>
