<?xml version="1.0" encoding="utf-8"?>
<!-- Generator: Adobe Illustrator 23.0.1, SVG Export Plug-In . SVG Version: 6.00 Build 0)  -->
<svg version="1.1" id="Layer_1" xmlns="http://www.w3.org/2000/svg" xmlns:xlink="http://www.w3.org/1999/xlink" x="0px" y="0px"
	 viewBox="0 0 79.6 78.8" style="enable-background:new 0 0 79.6 78.8;" xml:space="preserve">
<style type="text/css">
	.st0{fill:#024793;}
</style>
<g>
	<g>
		<g>
			<path class="st0" d="M126.3,42.9c-0.1,0-0.2,0-0.3-0.1l-12.2-12.2l-12.2,12.2c-0.2,0.2-0.4,0.2-0.6,0l-2.3-2.3
				c-0.1-0.1-0.1-0.2-0.1-0.3s0-0.2,0.1-0.3l12.4-12.4c0,0,0,0,0-0.1l2.3-2.3c0.1-0.1,0.2-0.1,0.3-0.1c0,0,0.1,0,0.1,0
				c0.1,0,0.1,0.1,0.2,0.1l2.3,2.3c0,0,0,0,0,0.1l12.4,12.4c0.2,0.2,0.2,0.4,0,0.6l-2.3,2.3C126.5,42.8,126.4,42.9,126.3,42.9z
				 M99.6,40.2l1.7,1.7l12.2-12.2c0.2-0.2,0.4-0.2,0.6,0l12.2,12.2l1.7-1.7L115.8,28c0,0,0,0,0-0.1l-2-2l-2,2c0,0,0,0,0,0.1
				L99.6,40.2z"/>
			<path class="st0" d="M102.4,53.9c-0.2,0-0.4-0.2-0.4-0.4V41.4c0-0.2,0.2-0.4,0.4-0.4s0.4,0.2,0.4,0.4v12.1
				C102.8,53.7,102.6,53.9,102.4,53.9z"/>
			<path class="st0" d="M125.2,53.9c-0.2,0-0.4-0.2-0.4-0.4V41.4c0-0.2,0.2-0.4,0.4-0.4c0.2,0,0.4,0.2,0.4,0.4v12.1
				C125.6,53.7,125.4,53.9,125.2,53.9z"/>
			<path class="st0" d="M124.6,36.6c-0.2,0-0.4-0.2-0.4-0.4v-9.2h-4.1v4.2c0,0.2-0.2,0.4-0.4,0.4s-0.4-0.2-0.4-0.4v-4.7
				c0-0.2,0.2-0.4,0.4-0.4h4.9c0.2,0,0.4,0.2,0.4,0.4v9.6C125.1,36.5,124.9,36.6,124.6,36.6z"/>
		</g>
		<path class="st0" d="M127.3,53.9h-27c-0.2,0-0.4-0.2-0.4-0.4c0-0.2,0.2-0.4,0.4-0.4h27c0.2,0,0.4,0.2,0.4,0.4
			C127.7,53.7,127.5,53.9,127.3,53.9z"/>
	</g>
	<g>
		<path class="st0" d="M115.5,49h-2.8c-1.3,0-2.3-1.1-2.3-2.3c0-0.2,0.2-0.4,0.4-0.4c0.2,0,0.4,0.2,0.4,0.4c0,0.8,0.7,1.5,1.5,1.5
			h2.8c0.8,0,1.5-0.7,1.5-1.5v-1.1c0-0.8-0.7-1.5-1.5-1.5h-2.8c-1.3,0-2.3-1.1-2.3-2.3v-1.1c0-1.3,1.1-2.3,2.3-2.3h2.8
			c1.3,0,2.3,1.1,2.3,2.3c0,0.2-0.2,0.4-0.4,0.4s-0.4-0.2-0.4-0.4c0-0.8-0.7-1.5-1.5-1.5h-2.8c-0.8,0-1.5,0.7-1.5,1.5v1.1
			c0,0.8,0.7,1.5,1.5,1.5h2.8c1.3,0,2.3,1.1,2.3,2.3v1.1C117.8,48,116.8,49,115.5,49z"/>
		<path class="st0" d="M114.1,39c-0.2,0-0.4-0.2-0.4-0.4v-2c0-0.2,0.2-0.4,0.4-0.4s0.4,0.2,0.4,0.4v2C114.5,38.9,114.3,39,114.1,39z
			"/>
		<path class="st0" d="M114.1,51c-0.2,0-0.4-0.2-0.4-0.4v-2c0-0.2,0.2-0.4,0.4-0.4s0.4,0.2,0.4,0.4v2C114.5,50.8,114.3,51,114.1,51z
			"/>
	</g>
</g>
<path class="st0" d="M39.8,75.9c-20.1,0-36.5-16.4-36.5-36.5S19.7,2.9,39.8,2.9s36.5,16.4,36.5,36.5S59.9,75.9,39.8,75.9z M39.8,3.9
	C20.2,3.9,4.3,19.8,4.3,39.4s15.9,35.5,35.5,35.5S75.3,59,75.3,39.4S59.4,3.9,39.8,3.9z"/>
<g>
	<path class="st0" d="M17.1,45.7l0.7-0.8c0,0,0.1,0.1,0.2,0.2c0.1,0.1,0.3,0.2,0.6,0.4c0.3,0.2,0.6,0.4,0.9,0.5
		c0.3,0.2,0.7,0.3,1.2,0.4c0.5,0.1,1,0.2,1.5,0.2c1,0,1.9-0.3,2.6-0.9c0.7-0.6,1-1.3,1-2.3c0-0.6-0.1-1.2-0.4-1.6
		c-0.3-0.5-0.7-0.9-1.2-1.1c-0.5-0.3-1-0.6-1.6-0.8c-0.6-0.3-1.2-0.5-1.7-0.8c-0.6-0.3-1.1-0.6-1.6-0.9c-0.5-0.3-0.9-0.7-1.2-1.3
		c-0.3-0.5-0.4-1.1-0.4-1.8c0-1.1,0.5-2.1,1.4-2.9c0.9-0.8,2.1-1.2,3.5-1.2c0.5,0,1,0,1.4,0.1c0.5,0.1,0.8,0.2,1.1,0.4
		c0.3,0.1,0.6,0.3,0.8,0.4c0.2,0.2,0.4,0.3,0.5,0.4l0.2,0.2l-0.6,0.9c-0.1-0.1-0.3-0.2-0.4-0.4c-0.2-0.2-0.6-0.4-1.2-0.6
		c-0.6-0.3-1.2-0.4-1.9-0.4c-1.1,0-2.1,0.3-2.8,1c-0.7,0.6-1.1,1.4-1.1,2.2c0,0.6,0.1,1.1,0.4,1.5c0.3,0.4,0.7,0.8,1.2,1.1
		c0.5,0.3,1,0.5,1.6,0.8c0.6,0.2,1.2,0.5,1.7,0.8c0.6,0.3,1.1,0.6,1.6,0.9c0.5,0.3,0.9,0.8,1.2,1.3c0.3,0.6,0.4,1.2,0.4,1.9
		c0,1.2-0.4,2.2-1.3,3c-0.9,0.8-2,1.2-3.4,1.2c-0.6,0-1.2-0.1-1.7-0.2c-0.6-0.1-1-0.3-1.4-0.5c-0.4-0.2-0.7-0.4-1-0.6
		c-0.3-0.2-0.5-0.4-0.6-0.5L17.1,45.7z"/>
	<path class="st0" d="M29.4,39.3c0-2.3,0.8-4.2,2.4-5.8c1.6-1.6,3.5-2.4,5.8-2.4c2.3,0,4.2,0.8,5.8,2.4c1.6,1.6,2.4,3.5,2.4,5.8
		c0,2.4-0.8,4.4-2.4,6c-1.6,1.6-3.5,2.4-5.8,2.4c-2.3,0-4.2-0.8-5.8-2.4C30.2,43.7,29.4,41.7,29.4,39.3z M30.4,39.3
		c0,2.1,0.7,3.9,2.1,5.3c1.4,1.4,3.1,2.2,5,2.2c2,0,3.7-0.7,5-2.2c1.4-1.4,2.1-3.2,2.1-5.3c0-2.1-0.7-3.8-2.1-5.2
		c-1.4-1.4-3.1-2.1-5-2.1c-2,0-3.7,0.7-5,2.1C31.1,35.5,30.4,37.2,30.4,39.3z"/>
	<path class="st0" d="M48.4,39.3c0-2.3,0.8-4.3,2.3-5.8c1.5-1.6,3.4-2.4,5.7-2.4c0.7,0,1.4,0.1,2,0.2c0.7,0.1,1.2,0.3,1.6,0.5
		c0.4,0.2,0.8,0.4,1.1,0.6c0.3,0.2,0.6,0.4,0.7,0.5l0.2,0.2l-0.6,0.7c0,0-0.1-0.1-0.2-0.2c-0.1-0.1-0.3-0.2-0.7-0.4
		c-0.3-0.2-0.7-0.4-1.1-0.6c-0.4-0.2-0.8-0.3-1.4-0.4C57.6,32.1,57,32,56.4,32c-2,0-3.6,0.7-5,2.1c-1.3,1.4-2,3.1-2,5.2
		c0,2.1,0.7,3.9,2,5.3c1.3,1.4,3,2.2,5,2.2c0.6,0,1.3-0.1,1.9-0.2c0.6-0.2,1.1-0.3,1.5-0.5c0.4-0.2,0.8-0.4,1.1-0.6
		c0.3-0.2,0.5-0.4,0.7-0.6l0.2-0.2l0.6,0.7c-0.1,0.1-0.1,0.1-0.3,0.3c-0.1,0.1-0.4,0.3-0.7,0.6s-0.8,0.5-1.2,0.7
		c-0.4,0.2-1,0.4-1.7,0.6c-0.7,0.2-1.4,0.3-2.1,0.3c-2.3,0-4.2-0.8-5.8-2.4C49.2,43.7,48.4,41.7,48.4,39.3z"/>
</g>
</svg>
