<?xml version="1.0" encoding="utf-8"?>
<!-- Generator: Adobe Illustrator 16.0.0, SVG Export Plug-In . SVG Version: 6.00 Build 0)  -->
<!DOCTYPE svg PUBLIC "-//W3C//DTD SVG 1.1//EN" "http://www.w3.org/Graphics/SVG/1.1/DTD/svg11.dtd">
<svg version="1.1" id="Layer_1" xmlns="http://www.w3.org/2000/svg" xmlns:xlink="http://www.w3.org/1999/xlink" x="0px" y="0px"
	 width="37.167px" height="37.834px" viewBox="0 0 37.167 37.834" enable-background="new 0 0 37.167 37.834" xml:space="preserve">
<g>
	<path fill="#29A7DF" d="M36.394,18.919c0,9.794-8.013,17.809-17.808,17.809h-0.005c-9.794,0-17.808-8.015-17.808-17.809v-0.003
		c0-9.795,8.014-17.81,17.808-17.81h0.005c9.795,0,17.808,8.015,17.808,17.81V18.919z"/>
	<path fill="#FFFFFF" d="M28.908,12.513c-0.759,0.337-1.576,0.565-2.433,0.667c0.874-0.524,1.548-1.354,1.862-2.343
		c-0.817,0.484-1.725,0.839-2.689,1.027c-0.773-0.823-1.875-1.339-3.092-1.339c-2.34,0-4.238,1.898-4.238,4.237
		c0,0.334,0.037,0.655,0.109,0.965c-3.52-0.175-6.641-1.861-8.731-4.426c-0.363,0.626-0.573,1.354-0.573,2.13
		c0,1.47,0.748,2.768,1.885,3.527c-0.695-0.021-1.348-0.212-1.918-0.531v0.055c0,2.052,1.461,3.764,3.396,4.152
		c-0.354,0.098-0.73,0.149-1.115,0.149c-0.272,0-0.538-0.026-0.797-0.077c0.539,1.685,2.104,2.908,3.957,2.943
		c-1.449,1.137-3.275,1.813-5.262,1.813c-0.342,0-0.678-0.02-1.01-0.059c1.874,1.2,4.102,1.902,6.495,1.902
		c7.791,0,12.052-6.455,12.052-12.054c0-0.183-0.005-0.365-0.012-0.549C27.621,14.109,28.34,13.363,28.908,12.513z"/>
</g>
</svg>
