<?xml version="1.0" encoding="utf-8"?>
<!-- Generator: Adobe Illustrator 24.0.0, SVG Export Plug-In . SVG Version: 6.00 Build 0)  -->
<svg version="1.1" id="Capa_1" xmlns="http://www.w3.org/2000/svg" xmlns:xlink="http://www.w3.org/1999/xlink" x="0px" y="0px"
	 viewBox="0 0 39.6 35.8" style="enable-background:new 0 0 39.6 35.8;" xml:space="preserve">
<style type="text/css">
	.st0{fill:#015694;}
</style>
<g>
	<g>
		<g>
			<path class="st0" d="M33.4,19H6.3c-0.6,0-1.1-0.5-1.1-1.1c0-0.6,0.5-1.1,1.1-1.1h27.1c0.6,0,1.1,0.5,1.1,1.1
				C34.5,18.5,34,19,33.4,19z"/>
		</g>
		<g>
			<path class="st0" d="M25.2,27.1c-0.3,0-0.6-0.1-0.8-0.3c-0.4-0.4-0.4-1.1,0-1.6l7.3-7.3l-7.3-7.3C24,10.2,24,9.5,24.5,9
				c0.4-0.4,1.1-0.4,1.6,0l8.1,8.1c0.4,0.4,0.4,1.1,0,1.6L26,26.8C25.8,27,25.5,27.1,25.2,27.1z"/>
		</g>
	</g>
</g>
</svg>
