<?xml version="1.0" encoding="utf-8"?>
<!-- Generator: Adobe Illustrator 24.0.0, SVG Export Plug-In . SVG Version: 6.00 Build 0)  -->
<svg version="1.1" id="Layer_1" xmlns="http://www.w3.org/2000/svg" xmlns:xlink="http://www.w3.org/1999/xlink" x="0px" y="0px"
	 viewBox="0 0 37.2 37.8" style="enable-background:new 0 0 37.2 37.8;" xml:space="preserve">
<style type="text/css">
	.st0{fill-rule:evenodd;clip-rule:evenodd;fill:#00A946;}
	.st1{fill-rule:evenodd;clip-rule:evenodd;fill:#FFFFFF;}
</style>
<g>
	<path class="st0" d="M36.5,18.9c0-9.8-8-17.9-17.9-17.9l0,0C8.8,1,0.7,9.1,0.7,18.9l0,0c0,9.8,8,17.9,17.9,17.9l0,0
		C28.4,36.8,36.5,28.7,36.5,18.9L36.5,18.9z"/>
	<g>
		<g>
			<g>
				<path class="st1" d="M18.6,8.2C12.7,8.2,7.9,13,7.9,18.9c0,2,0.6,3.9,1.5,5.5l-1.9,5.7l5.9-1.9c1.5,0.9,3.3,1.3,5.2,1.3
					c5.9,0,10.7-4.8,10.7-10.7C29.3,13,24.5,8.2,18.6,8.2z M18.6,27.9c-1.8,0-3.5-0.5-5-1.5l-3.5,1.1l1.1-3.3
					c-1.1-1.5-1.7-3.3-1.7-5.3c0-5,4-9,9-9s9,4,9,9C27.6,23.9,23.6,27.9,18.6,27.9z"/>
			</g>
			<g>
				<path class="st1" d="M18.6,8.2C12.7,8.2,7.9,13,7.9,18.9c0,2,0.6,3.9,1.5,5.5l-1.9,5.7l5.9-1.9c1.5,0.9,3.3,1.3,5.2,1.3
					c5.9,0,10.7-4.8,10.7-10.7C29.3,13,24.5,8.2,18.6,8.2z M18.6,27.9c-1.8,0-3.5-0.5-5-1.5l-3.5,1.1l1.1-3.3
					c-1.1-1.5-1.7-3.3-1.7-5.3c0-5,4-9,9-9s9,4,9,9C27.6,23.9,23.6,27.9,18.6,27.9z"/>
			</g>
		</g>
		<path class="st1" d="M16.1,14.5c-0.2-0.5-0.4-0.4-0.6-0.4c-0.2,0-0.3,0-0.5,0s-0.5,0.1-0.7,0.3s-0.9,0.9-0.9,2.2s0.9,2.5,1.1,2.7
			c0.1,0.2,1.8,2.9,4.5,4c2.7,1,2.7,0.7,3.1,0.7c0.5,0,1.6-0.6,1.8-1.2c0.2-0.6,0.2-1.1,0.2-1.2c-0.1-0.1-0.2-0.2-0.5-0.3
			c-0.3-0.1-1.6-0.8-1.8-0.9c-0.2-0.1-0.4-0.1-0.6,0.1c-0.2,0.3-0.7,0.9-0.8,1c-0.2,0.2-0.3,0.2-0.6,0.1c-0.3-0.1-1.1-0.4-2.1-1.3
			c-0.8-0.7-1.3-1.6-1.5-1.8s0-0.4,0.1-0.5s0.3-0.3,0.4-0.5s0.2-0.3,0.3-0.4s0-0.3,0-0.5C16.8,16.3,16.3,15,16.1,14.5z"/>
	</g>
</g>
</svg>
