<?xml version="1.0" encoding="utf-8"?>
<!-- Generator: Adobe Illustrator 16.0.0, SVG Export Plug-In . SVG Version: 6.00 Build 0)  -->
<!DOCTYPE svg PUBLIC "-//W3C//DTD SVG 1.1//EN" "http://www.w3.org/Graphics/SVG/1.1/DTD/svg11.dtd">
<svg version="1.1" id="Layer_1" xmlns="http://www.w3.org/2000/svg" xmlns:xlink="http://www.w3.org/1999/xlink" x="0px" y="0px"
	 width="37.167px" height="37.834px" viewBox="0 0 37.167 37.834" enable-background="new 0 0 37.167 37.834" xml:space="preserve">
<g>
	<path fill="#CD332C" d="M36.406,18.919c0,9.794-8.021,17.809-17.822,17.809h-0.005c-9.801,0-17.818-8.015-17.818-17.809v-0.005
		c0-9.795,8.018-17.808,17.818-17.808h0.005c9.801,0,17.822,8.013,17.822,17.808V18.919z"/>
	<path fill="#FFFFFF" d="M16.424,6.456h-1.412l-0.951,3.659l-0.99-3.659H11.6c0.294,0.863,0.601,1.73,0.896,2.595
		c0.446,1.3,0.728,2.279,0.853,2.948v3.773h1.398v-3.773L16.424,6.456z M20.154,13.524v-2.433c0-0.741-0.125-1.283-0.389-1.636
		c-0.348-0.474-0.838-0.712-1.468-0.712c-0.628,0-1.119,0.238-1.468,0.712c-0.269,0.353-0.394,0.895-0.394,1.636v2.433
		c0,0.737,0.125,1.285,0.394,1.633c0.349,0.475,0.84,0.711,1.468,0.711c0.63,0,1.12-0.236,1.468-0.711
		C20.029,14.81,20.154,14.262,20.154,13.524z M18.897,13.761c0,0.643-0.194,0.964-0.6,0.964c-0.407,0-0.603-0.321-0.603-0.964v-2.92
		c0-0.644,0.195-0.963,0.603-0.963c0.405,0,0.6,0.319,0.6,0.963V13.761z M24.812,15.772V8.83h-1.259v5.306
		c-0.28,0.395-0.543,0.589-0.796,0.589c-0.169,0-0.268-0.1-0.295-0.294c-0.016-0.042-0.016-0.194-0.016-0.49V8.83h-1.256v5.488
		c0,0.491,0.045,0.823,0.115,1.033c0.121,0.352,0.402,0.517,0.809,0.517c0.458,0,0.937-0.279,1.438-0.854v0.758H24.812z"/>
	<path fill="#FFFFFF" d="M28.892,24.198c0,1.605-0.002,3.31-0.362,4.871c-0.253,1.094-1.148,1.902-2.227,2.022
		c-2.557,0.286-5.146,0.288-7.721,0.286c-2.575,0.002-5.164,0-7.721-0.286c-1.078-0.12-1.977-0.929-2.226-2.022
		c-0.361-1.562-0.361-3.266-0.361-4.871c0-1.606,0.005-3.309,0.365-4.87c0.25-1.095,1.148-1.902,2.226-2.022
		c2.558-0.286,5.147-0.286,7.722-0.286s5.163,0,7.72,0.286c1.079,0.12,1.975,0.928,2.228,2.022
		C28.892,20.89,28.892,22.592,28.892,24.198z"/>
	<path fill="#CD332C" d="M14.155,20.733v-1.299H9.811v1.299h1.466v7.922h1.386v-7.922H14.155z M16.674,28.655v-0.749
		c-0.496,0.567-0.966,0.844-1.425,0.844c-0.401,0-0.677-0.162-0.802-0.51c-0.069-0.209-0.111-0.537-0.111-1.023v-5.433h1.247v5.06
		c0,0.289,0,0.442,0.012,0.483c0.029,0.194,0.125,0.291,0.29,0.291c0.25,0,0.512-0.192,0.789-0.582v-5.252h1.246v6.871H16.674z
		 M21.406,26.691c0,0.622-0.181,0.927-0.542,0.927c-0.204,0-0.411-0.097-0.621-0.305v-4.189c0.21-0.204,0.417-0.303,0.621-0.303
		c0.361,0,0.542,0.319,0.542,0.938V26.691z M22.653,26.594v-2.736c0-0.649-0.045-1.104-0.126-1.381
		c-0.166-0.515-0.498-0.775-0.996-0.775c-0.457,0-0.885,0.251-1.288,0.745v-3.012H19v9.221h1.243v-0.666
		c0.417,0.515,0.845,0.761,1.288,0.761c0.498,0,0.83-0.26,0.996-0.771C22.608,27.688,22.653,27.229,22.653,26.594z M26.109,24.409
		h-1.245v-0.633c0-0.636,0.209-0.955,0.624-0.955c0.413,0,0.621,0.319,0.621,0.955V24.409z M27.357,26.457v-0.183h-1.273
		c0,0.502-0.017,0.777-0.027,0.845c-0.071,0.331-0.251,0.499-0.558,0.499c-0.426,0-0.635-0.316-0.635-0.954v-1.217h2.493v-1.423
		c0-0.735-0.128-1.271-0.388-1.618c-0.351-0.472-0.843-0.705-1.471-0.705c-0.635,0-1.131,0.233-1.491,0.705
		c-0.264,0.347-0.385,0.883-0.385,1.618v2.407c0,0.729,0.137,1.271,0.401,1.614c0.356,0.469,0.854,0.704,1.508,0.704
		c0.65,0,1.16-0.246,1.506-0.743c0.149-0.222,0.248-0.472,0.29-0.747C27.339,27.133,27.357,26.857,27.357,26.457z"/>
</g>
</svg>
