<?xml version="1.0" encoding="utf-8"?>
<!-- Generator: Adobe Illustrator 23.0.1, SVG Export Plug-In . SVG Version: 6.00 Build 0)  -->
<svg version="1.1" id="Layer_1" xmlns="http://www.w3.org/2000/svg" xmlns:xlink="http://www.w3.org/1999/xlink" x="0px" y="0px"
	 viewBox="0 0 121.9 49.2" style="enable-background:new 0 0 121.9 49.2;" xml:space="preserve">
<style type="text/css">
	.st0{fill:#A0925A;}
	.st1{fill:none;stroke:#000000;stroke-width:1.2494;}
	.st2{fill:none;stroke:#000000;stroke-width:1.2494;stroke-linecap:square;stroke-linejoin:round;}
</style>
<g>
	<g>
		<path d="M29.8,33.8l6.6,1c-3.8,2.4-12,5.8-18.6,3.5c-7.1-2.5-7.2-10.9-0.7-20.5c6.5-9.7,21-14.2,28-13.9C52.2,4.1,60.7,5.5,61,17
			c0,0,2.5-15.8-18.4-15.7C20.9,1.3-0.6,22.9,4.6,36.1c4.3,10.9,28.3,8.4,39.8-6.5L29.8,33.8z"/>
	</g>
	<g>
		<path class="st0" d="M32.9,15.5l-6.6-1c3.8-2.4,12-5.8,18.6-3.5c7.1,2.5,7.2,10.9,0.7,20.5c-6.5,9.7-21,14.2-28,13.9
			C10.5,45.2,2,43.7,1.7,32.3c0,0-2.5,15.8,18.4,15.7c21.7-0.1,43.2-21.7,38-34.9c-4.3-10.9-28.3-8.4-39.8,6.5L32.9,15.5z"/>
	</g>
	<g>
		<polygon points="22.2,20.8 26.3,20.8 26.1,22.1 23.6,22.1 23.3,23.8 25.7,23.8 25.5,25.2 23.1,25.2 22.8,27.1 25.3,27.1 
			25.1,28.5 21,28.5 		"/>
	</g>
	<g>
		<polygon class="st1" points="22.2,20.8 26.3,20.8 26.1,22.1 23.6,22.1 23.3,23.8 25.7,23.8 25.5,25.2 23.1,25.2 22.8,27.1 
			25.3,27.1 25.1,28.5 21,28.5 		"/>
	</g>
	<g>
		<path d="M32.8,21.6L32,22.7c-0.3-0.2-0.5-0.4-0.7-0.5c-0.2-0.1-0.4-0.2-0.6-0.2c-0.3,0-0.5,0.1-0.7,0.3s-0.3,0.4-0.3,0.6
			c0,0.2,0.1,0.4,0.3,0.6s0.5,0.4,1,0.6c0.4,0.2,0.7,0.4,0.8,0.6c0.1,0.1,0.3,0.3,0.4,0.6c0.1,0.3,0.2,0.5,0.2,0.9
			c0,0.7-0.2,1.2-0.7,1.7c-0.5,0.5-1.1,0.7-1.8,0.7c-0.9,0-1.7-0.3-2.5-1l0.9-1.1c0.2,0.1,0.4,0.3,0.7,0.5s0.5,0.3,0.8,0.3
			c0.3,0,0.5-0.1,0.7-0.3c0.2-0.2,0.3-0.4,0.3-0.7c0-0.2-0.1-0.4-0.3-0.6c-0.2-0.2-0.5-0.4-0.9-0.5c-0.4-0.2-0.7-0.3-0.8-0.4
			s-0.3-0.3-0.5-0.6c-0.2-0.3-0.2-0.6-0.2-1c0-0.7,0.2-1.3,0.8-1.7c0.5-0.5,1.1-0.7,1.9-0.7C31.4,20.6,32.2,21,32.8,21.6"/>
	</g>
	<g>
		<path class="st1" d="M32.8,21.6L32,22.7c-0.3-0.2-0.5-0.4-0.7-0.5c-0.2-0.1-0.4-0.2-0.6-0.2c-0.3,0-0.5,0.1-0.7,0.3
			s-0.3,0.4-0.3,0.6c0,0.2,0.1,0.4,0.3,0.6s0.5,0.4,1,0.6c0.4,0.2,0.7,0.4,0.8,0.6c0.1,0.1,0.3,0.3,0.4,0.6c0.1,0.3,0.2,0.5,0.2,0.9
			c0,0.7-0.2,1.2-0.7,1.7c-0.5,0.5-1.1,0.7-1.8,0.7c-0.9,0-1.7-0.3-2.5-1l0.9-1.1c0.2,0.1,0.4,0.3,0.7,0.5s0.5,0.3,0.8,0.3
			c0.3,0,0.5-0.1,0.7-0.3c0.2-0.2,0.3-0.4,0.3-0.7c0-0.2-0.1-0.4-0.3-0.6c-0.2-0.2-0.5-0.4-0.9-0.5c-0.4-0.2-0.7-0.3-0.8-0.4
			s-0.3-0.3-0.5-0.6c-0.2-0.3-0.2-0.6-0.2-1c0-0.7,0.2-1.3,0.8-1.7c0.5-0.5,1.1-0.7,1.9-0.7C31.4,20.6,32.2,21,32.8,21.6z"/>
	</g>
	<g>
		<path d="M35.7,20.8h1.5c1,0,1.7,0.2,2.2,0.6c0.5,0.4,0.8,1,0.8,1.7c0,0.6-0.1,1.1-0.4,1.6s-0.7,0.8-1.4,0.9l1.5,2.9h-1.6l-1.4-2.8
			h-0.2l-0.4,2.8h-1.6L35.7,20.8z M37.1,22.1l-0.3,2.2l0.3,0c0.4,0,0.7-0.1,1-0.3c0.3-0.2,0.4-0.5,0.4-0.8c0-0.4-0.1-0.6-0.4-0.8
			C37.9,22.2,37.6,22.1,37.1,22.1"/>
	</g>
	<g>
		<path class="st1" d="M35.7,20.8h1.5c1,0,1.7,0.2,2.2,0.6c0.5,0.4,0.8,1,0.8,1.7c0,0.6-0.1,1.1-0.4,1.6s-0.7,0.8-1.4,0.9l1.5,2.9
			h-1.6l-1.4-2.8h-0.2l-0.4,2.8h-1.6L35.7,20.8z M37.1,22.1l-0.3,2.2l0.3,0c0.4,0,0.7-0.1,1-0.3c0.3-0.2,0.4-0.5,0.4-0.8
			c0-0.4-0.1-0.6-0.4-0.8C37.9,22.2,37.6,22.1,37.1,22.1z"/>
	</g>
	<g>
		<polygon points="63.8,12.4 67.3,12.4 67.2,13.5 65,13.5 64.8,14.9 66.8,14.9 66.7,16.1 64.6,16.1 64.4,17.7 66.5,17.7 66.3,18.8 
			62.9,18.8 		"/>
	</g>
	<g>
		<polygon class="st2" points="63.8,12.4 67.3,12.4 67.2,13.5 65,13.5 64.8,14.9 66.8,14.9 66.7,16.1 64.6,16.1 64.4,17.7 
			66.5,17.7 66.3,18.8 62.9,18.8 		"/>
	</g>
	<g>
		<polygon points="68.9,12.4 70.1,12.4 70.8,16 72.6,12.4 73.8,12.4 73.8,18.8 72.7,18.8 72.7,15 70.7,18.8 70.1,18.8 69.4,14.8 
			68,18.8 66.7,18.8 		"/>
	</g>
	<g>
		<path d="M75.4,12.4h1.3c1.6,0,2.4,0.7,2.4,2c0,0.4-0.1,0.7-0.2,1c-0.2,0.3-0.4,0.5-0.6,0.7c-0.2,0.2-0.5,0.3-0.8,0.3
			c-0.3,0-0.7,0.1-1.4,0.1l-0.3,2.3h-1.3L75.4,12.4z M76.6,13.5l-0.3,1.8h0.4c0.3,0,0.6-0.1,0.8-0.3c0.2-0.2,0.3-0.4,0.3-0.7
			c0-0.2-0.1-0.4-0.3-0.6c-0.2-0.2-0.4-0.2-0.7-0.2L76.6,13.5L76.6,13.5z"/>
	</g>
	<g>
		<path d="M80.5,12.4h1.2c0.8,0,1.4,0.2,1.9,0.5c0.4,0.3,0.6,0.8,0.6,1.4c0,0.5-0.1,0.9-0.3,1.3c-0.2,0.4-0.6,0.6-1.2,0.8l1.3,2.4
			h-1.3l-1.2-2.3h-0.2l-0.3,2.3h-1.3L80.5,12.4z M81.6,13.5l-0.3,1.8l0.3,0c0.3,0,0.6-0.1,0.9-0.3c0.2-0.2,0.4-0.4,0.4-0.7
			c0-0.3-0.1-0.5-0.3-0.7C82.3,13.6,82,13.5,81.6,13.5"/>
	</g>
	<g>
		<polygon points="85.7,12.4 89.2,12.4 89,13.5 86.9,13.5 86.6,14.9 88.7,14.9 88.5,16.1 86.5,16.1 86.2,17.7 88.3,17.7 88.1,18.8 
			84.7,18.8 		"/>
	</g>
	<g>
		<path d="M93.3,13L92.6,14c-0.2-0.2-0.4-0.3-0.6-0.4c-0.2-0.1-0.3-0.1-0.5-0.1c-0.2,0-0.4,0.1-0.6,0.2s-0.2,0.3-0.2,0.5
			c0,0.2,0.1,0.4,0.3,0.5s0.5,0.3,0.9,0.5c0.3,0.2,0.6,0.4,0.7,0.5c0.1,0.1,0.2,0.3,0.3,0.5c0.1,0.2,0.2,0.5,0.2,0.7
			c0,0.6-0.2,1-0.6,1.4s-0.9,0.6-1.5,0.6c-0.7,0-1.4-0.3-2-0.8l0.8-0.9c0.2,0.1,0.4,0.2,0.6,0.4c0.2,0.1,0.4,0.2,0.7,0.2
			c0.2,0,0.4-0.1,0.6-0.2c0.2-0.2,0.2-0.3,0.2-0.6c0-0.2-0.1-0.4-0.2-0.5c-0.2-0.2-0.4-0.3-0.7-0.4c-0.3-0.1-0.6-0.3-0.7-0.4
			c-0.1-0.1-0.3-0.3-0.4-0.5c-0.1-0.2-0.2-0.5-0.2-0.8c0-0.6,0.2-1,0.6-1.4s0.9-0.6,1.6-0.6C92.1,12.3,92.7,12.5,93.3,13"/>
	</g>
	<g>
		<path d="M96.5,12.4h0.9l1.6,6.4h-1.2l-0.3-1.3h-2.4l-0.7,1.3H93L96.5,12.4z M96.7,14.5l-1,1.9h1.5L96.7,14.5z"/>
	</g>
	<g>
		<path d="M63.8,30.4H65c0.8,0,1.4,0.2,1.9,0.5c0.4,0.3,0.6,0.8,0.6,1.4c0,0.5-0.1,0.9-0.3,1.3C67,34,66.6,34.3,66,34.4l1.3,2.4
			h-1.3l-1.2-2.3h-0.2l-0.3,2.3h-1.3L63.8,30.4z M65,31.6l-0.3,1.8l0.3,0c0.3,0,0.6-0.1,0.9-0.3s0.4-0.4,0.4-0.7
			c0-0.3-0.1-0.5-0.3-0.7C65.7,31.6,65.4,31.6,65,31.6"/>
	</g>
	<g>
		<path class="st2" d="M63.8,30.4H65c0.8,0,1.4,0.2,1.9,0.5c0.4,0.3,0.6,0.8,0.6,1.4c0,0.5-0.1,0.9-0.3,1.3C67,34,66.6,34.3,66,34.4
			l1.3,2.4h-1.3l-1.2-2.3h-0.2l-0.3,2.3h-1.3L63.8,30.4z M65,31.6l-0.3,1.8l0.3,0c0.3,0,0.6-0.1,0.9-0.3s0.4-0.4,0.4-0.7
			c0-0.3-0.1-0.5-0.3-0.7C65.7,31.6,65.4,31.6,65,31.6z"/>
	</g>
	<g>
		<polygon points="69,30.4 72.5,30.4 72.4,31.6 70.2,31.6 70,33 72,33 71.9,34.1 69.8,34.1 69.6,35.7 71.7,35.7 71.5,36.9 
			68.1,36.9 		"/>
	</g>
	<g>
		<path d="M76.6,31.1L75.9,32c-0.2-0.2-0.4-0.3-0.6-0.4s-0.3-0.1-0.5-0.1c-0.2,0-0.4,0.1-0.6,0.2c-0.2,0.1-0.2,0.3-0.2,0.5
			c0,0.2,0.1,0.4,0.3,0.5c0.2,0.1,0.5,0.3,0.9,0.5c0.3,0.2,0.6,0.4,0.7,0.5c0.1,0.1,0.2,0.3,0.3,0.5c0.1,0.2,0.2,0.5,0.2,0.7
			c0,0.6-0.2,1-0.6,1.4c-0.4,0.4-0.9,0.6-1.5,0.6c-0.7,0-1.4-0.3-2-0.8l0.8-0.9c0.2,0.1,0.4,0.2,0.6,0.4s0.4,0.2,0.7,0.2
			c0.2,0,0.4-0.1,0.6-0.2c0.2-0.2,0.2-0.3,0.2-0.6c0-0.2-0.1-0.4-0.2-0.5c-0.2-0.2-0.4-0.3-0.7-0.4c-0.3-0.1-0.6-0.3-0.7-0.4
			c-0.1-0.1-0.3-0.3-0.4-0.5c-0.1-0.2-0.2-0.5-0.2-0.8c0-0.6,0.2-1,0.6-1.4c0.4-0.4,0.9-0.6,1.6-0.6C75.5,30.3,76.1,30.6,76.6,31.1"
			/>
	</g>
	<g>
		<path d="M77.5,30.4h1.3c1.6,0,2.4,0.7,2.4,2c0,0.4-0.1,0.7-0.2,1c-0.2,0.3-0.4,0.5-0.6,0.7c-0.2,0.2-0.5,0.3-0.8,0.3
			c-0.3,0-0.7,0.1-1.4,0.1l-0.3,2.3h-1.3L77.5,30.4z M78.6,31.6l-0.3,1.8h0.4c0.3,0,0.6-0.1,0.8-0.3c0.2-0.2,0.3-0.4,0.3-0.7
			c0-0.2-0.1-0.4-0.3-0.6c-0.2-0.2-0.4-0.2-0.7-0.2H78.6z"/>
	</g>
	<g>
		<path d="M85.3,30.3c1,0,1.7,0.3,2.3,0.8c0.5,0.6,0.8,1.3,0.8,2.3c0,1-0.3,1.9-1,2.5c-0.7,0.6-1.5,1-2.6,1c-0.9,0-1.7-0.3-2.2-0.9
			c-0.5-0.6-0.8-1.3-0.8-2.3c0-1,0.3-1.8,1-2.5C83.4,30.7,84.3,30.3,85.3,30.3 M87.1,33.5c0-0.6-0.2-1.1-0.5-1.5
			c-0.3-0.4-0.8-0.6-1.3-0.6c-0.6,0-1.1,0.2-1.5,0.7c-0.4,0.4-0.6,1-0.6,1.6c0,0.6,0.2,1.1,0.5,1.5c0.3,0.4,0.8,0.6,1.3,0.6
			c0.6,0,1.1-0.2,1.5-0.7C86.9,34.7,87.1,34.1,87.1,33.5"/>
	</g>
	<g>
		<polygon points="89.8,30.4 91.2,30.4 93.3,34.7 93.9,30.4 95.2,30.4 94.3,36.9 93,36.9 90.9,32.4 90.2,36.9 88.9,36.9 		"/>
	</g>
	<g>
		<path d="M99.5,31.1L98.8,32c-0.2-0.2-0.4-0.3-0.6-0.4c-0.2-0.1-0.3-0.1-0.5-0.1c-0.2,0-0.4,0.1-0.6,0.2c-0.2,0.1-0.2,0.3-0.2,0.5
			c0,0.2,0.1,0.4,0.3,0.5c0.2,0.1,0.5,0.3,0.9,0.5c0.3,0.2,0.6,0.4,0.7,0.5c0.1,0.1,0.2,0.3,0.3,0.5c0.1,0.2,0.2,0.5,0.2,0.7
			c0,0.6-0.2,1-0.6,1.4c-0.4,0.4-0.9,0.6-1.5,0.6c-0.7,0-1.4-0.3-2-0.8l0.8-0.9c0.2,0.1,0.4,0.2,0.6,0.4c0.2,0.1,0.4,0.2,0.7,0.2
			c0.2,0,0.4-0.1,0.6-0.2c0.2-0.2,0.2-0.3,0.2-0.6c0-0.2-0.1-0.4-0.2-0.5c-0.2-0.2-0.4-0.3-0.7-0.4c-0.3-0.1-0.6-0.3-0.7-0.4
			c-0.1-0.1-0.3-0.3-0.4-0.5c-0.1-0.2-0.2-0.5-0.2-0.8c0-0.6,0.2-1,0.6-1.4c0.4-0.4,0.9-0.6,1.6-0.6C98.4,30.3,99,30.6,99.5,31.1"/>
	</g>
	<g>
		<path d="M102.7,30.4h0.9l1.6,6.4h-1.2l-0.3-1.3h-2.4l-0.7,1.3h-1.4L102.7,30.4z M103,32.5l-1,1.9h1.5L103,32.5z"/>
	</g>
	<g>
		<path d="M106.9,30.4h1.5c1.5,0,2.2,0.5,2.2,1.6c0,0.6-0.3,1.1-0.9,1.5c0.7,0.3,1,0.8,1,1.5c0,0.6-0.2,1-0.7,1.3
			c-0.5,0.3-1.2,0.5-2,0.5h-2L106.9,30.4z M107.7,34l-0.3,1.8h0.7c0.4,0,0.7-0.1,1-0.2c0.2-0.2,0.4-0.4,0.4-0.6
			c0-0.3-0.1-0.5-0.3-0.6c-0.2-0.2-0.5-0.3-0.8-0.3L107.7,34L107.7,34z M108.1,31.5l-0.2,1.5h0.5c0.3,0,0.6-0.1,0.8-0.2
			c0.2-0.1,0.3-0.3,0.3-0.5c0-0.2-0.1-0.4-0.3-0.6c-0.2-0.1-0.4-0.2-0.7-0.2C108.4,31.5,108.1,31.5,108.1,31.5z"/>
	</g>
	<g>
		<polygon points="112.2,30.4 113.5,30.4 112.8,35.7 114.9,35.7 114.7,36.9 111.3,36.9 		"/>
	</g>
	<g>
		<polygon points="116.5,30.4 120,30.4 119.8,31.6 117.7,31.6 117.4,33 119.5,33 119.3,34.1 117.3,34.1 117,35.7 119.1,35.7 
			119,36.9 115.5,36.9 		"/>
	</g>
	<g>
		<path d="M67.4,21.9l-0.7,0.9c-0.2-0.2-0.4-0.3-0.6-0.4s-0.3-0.1-0.5-0.1c-0.2,0-0.4,0.1-0.6,0.2c-0.2,0.1-0.2,0.3-0.2,0.5
			c0,0.2,0.1,0.4,0.3,0.5c0.2,0.1,0.5,0.3,0.9,0.5c0.3,0.2,0.6,0.4,0.7,0.5c0.1,0.1,0.2,0.3,0.3,0.5c0.1,0.2,0.2,0.5,0.2,0.7
			c0,0.6-0.2,1-0.6,1.4c-0.4,0.4-0.9,0.6-1.5,0.6c-0.7,0-1.4-0.3-2-0.8l0.8-0.9c0.2,0.1,0.4,0.2,0.6,0.4c0.2,0.1,0.4,0.2,0.7,0.2
			c0.2,0,0.4-0.1,0.6-0.2c0.2-0.2,0.2-0.3,0.2-0.6c0-0.2-0.1-0.4-0.2-0.5c-0.2-0.2-0.4-0.3-0.7-0.4c-0.3-0.1-0.6-0.3-0.7-0.4
			c-0.1-0.1-0.3-0.3-0.4-0.5c-0.1-0.2-0.2-0.5-0.2-0.8c0-0.6,0.2-1,0.6-1.4s0.9-0.6,1.6-0.6C66.2,21.1,66.8,21.4,67.4,21.9"/>
	</g>
	<g>
		<path class="st2" d="M67.4,21.9l-0.7,0.9c-0.2-0.2-0.4-0.3-0.6-0.4s-0.3-0.1-0.5-0.1c-0.2,0-0.4,0.1-0.6,0.2
			c-0.2,0.1-0.2,0.3-0.2,0.5c0,0.2,0.1,0.4,0.3,0.5c0.2,0.1,0.5,0.3,0.9,0.5c0.3,0.2,0.6,0.4,0.7,0.5c0.1,0.1,0.2,0.3,0.3,0.5
			c0.1,0.2,0.2,0.5,0.2,0.7c0,0.6-0.2,1-0.6,1.4c-0.4,0.4-0.9,0.6-1.5,0.6c-0.7,0-1.4-0.3-2-0.8l0.8-0.9c0.2,0.1,0.4,0.2,0.6,0.4
			c0.2,0.1,0.4,0.2,0.7,0.2c0.2,0,0.4-0.1,0.6-0.2c0.2-0.2,0.2-0.3,0.2-0.6c0-0.2-0.1-0.4-0.2-0.5c-0.2-0.2-0.4-0.3-0.7-0.4
			c-0.3-0.1-0.6-0.3-0.7-0.4c-0.1-0.1-0.3-0.3-0.4-0.5c-0.1-0.2-0.2-0.5-0.2-0.8c0-0.6,0.2-1,0.6-1.4s0.9-0.6,1.6-0.6
			C66.2,21.1,66.8,21.4,67.4,21.9z"/>
	</g>
	<g>
		<path d="M71.3,21.1c1,0,1.7,0.3,2.3,0.8c0.5,0.6,0.8,1.3,0.8,2.3c0,1-0.3,1.9-1,2.5c-0.7,0.6-1.5,1-2.6,1c-0.9,0-1.7-0.3-2.2-0.9
			c-0.5-0.6-0.8-1.3-0.8-2.3c0-1,0.3-1.8,1-2.5C69.4,21.5,70.2,21.1,71.3,21.1 M73,24.3c0-0.6-0.2-1.1-0.5-1.5
			c-0.3-0.4-0.8-0.6-1.3-0.6c-0.6,0-1.1,0.2-1.5,0.7c-0.4,0.4-0.6,1-0.6,1.6c0,0.6,0.2,1.1,0.5,1.5c0.3,0.4,0.8,0.6,1.3,0.6
			c0.6,0,1.1-0.2,1.5-0.7C72.8,25.5,73,24.9,73,24.3"/>
	</g>
	<g>
		<path d="M80.5,21.7l-0.2,1.2c-0.4-0.4-0.9-0.5-1.5-0.5c-0.6,0-1.2,0.2-1.7,0.7c-0.5,0.5-0.7,1-0.7,1.6c0,0.6,0.2,1,0.5,1.4
			c0.3,0.3,0.8,0.5,1.3,0.5c0.5,0,1-0.2,1.6-0.5l-0.2,1.3c-0.5,0.3-1.1,0.4-1.6,0.4c-1,0-1.7-0.3-2.2-0.9c-0.5-0.6-0.8-1.3-0.8-2.1
			c0-1.1,0.4-2,1.1-2.6c0.7-0.7,1.5-1,2.4-1C79.3,21.1,80,21.3,80.5,21.7"/>
	</g>
	<g>
		<polygon points="81.4,21.2 82.8,21.2 81.8,27.7 80.5,27.7 		"/>
	</g>
	<g>
		<path d="M86,21.2h0.9l1.6,6.4h-1.2L87,26.4h-2.4l-0.7,1.3h-1.4L86,21.2z M86.2,23.3l-1,1.9h1.5L86.2,23.3z"/>
	</g>
	<g>
		<polygon points="90.1,21.2 91.4,21.2 90.7,26.5 92.8,26.5 92.6,27.7 89.2,27.7 		"/>
	</g>
	<g>
		<polygon points="95.2,21.2 96.4,21.2 97.1,24.8 98.9,21.2 100.1,21.2 100.1,27.7 98.9,27.7 98.9,23.8 97,27.7 96.4,27.7 
			95.6,23.7 94.3,27.7 93,27.7 		"/>
	</g>
	<g>
		<polygon points="101.8,21.2 105.3,21.2 105.2,22.4 103,22.4 102.8,23.8 104.8,23.8 104.7,24.9 102.6,24.9 102.4,26.5 104.5,26.5 
			104.3,27.7 100.9,27.7 		"/>
	</g>
	<g>
		<polygon points="106.1,21.2 107.5,21.2 109.5,25.5 110.2,21.2 111.5,21.2 110.5,27.7 109.3,27.7 107.1,23.2 106.5,27.7 
			105.2,27.7 		"/>
	</g>
	<g>
		<polygon points="112.1,21.2 116.1,21.2 115.9,22.4 114.6,22.4 113.8,27.7 112.5,27.7 113.3,22.4 112,22.4 		"/>
	</g>
	<g>
		<polygon points="116.8,21.2 120.3,21.2 120.1,22.4 117.9,22.4 117.7,23.8 119.8,23.8 119.6,24.9 117.6,24.9 117.3,26.5 
			119.4,26.5 119.2,27.7 115.8,27.7 		"/>
	</g>
</g>
</svg>
